<?xml version="1.0" encoding="utf-8"?>
<!-- Generator: Adobe Illustrator 25.0.1, SVG Export Plug-In . SVG Version: 6.00 Build 0)  -->
<svg version="1.1" id="Layer_1" xmlns="http://www.w3.org/2000/svg" xmlns:xlink="http://www.w3.org/1999/xlink" x="0px" y="0px"
	 viewBox="0 0 100 100" style="enable-background:new 0 0 100 100;" xml:space="preserve">
<style type="text/css">
	.st0{fill:#010101;}
</style>
<g transform="translate(0.000000,383.000000) scale(0.100000,-0.100000)">
	<path class="st0" d="M446.81,3811.89c-125.13-11.89-220.26-54.81-307.39-139.35c-90.48-87.64-135.47-180.97-145.55-301.7
		c-12.15-147.1,39.04-279.72,148.14-383.14c101.6-96.43,227.76-143.48,370.73-137.79c155.12,6.2,292.13,77.56,384.69,200.36
		c86.61,115.3,114.27,258.01,77.82,404.59c-26.63,106.77-105.22,212.25-208.89,279.72c-80.92,53-176.83,79.88-279.21,78.33
		C469.82,3812.93,451.72,3812.15,446.81,3811.89z M493.61,3785c4.14,0,10.6-16.03,10.6-26.89c0.26-15.77-6.2-26.37-17.84-29.21
		l-9.57-2.07l0.78-14.99l0.52-14.74h-11.63h-11.89v43.95v43.69l14.99,1.03c8.01,0.26,16.29,0.52,18.1,0
		C489.73,3785.26,492.31,3785,493.61,3785z M446.81,3779.32c0-3.36,0.78-8.53,1.55-11.63c1.29-4.91,0.26-5.95-7.76-7.24
		c-5.17-1.03-9.31-3.1-9.31-4.91c0-1.55,2.33-15.77,4.65-31.8c5.17-31.28,5.17-31.8-8.53-31.8c-6.72,0-6.46-0.52-12.93,36.71
		l-4.39,24.82l-8.27-0.26c-8.27-0.52-8.53-0.52-7.24-12.67c1.03-10.86,0.26-12.93-6.2-19.65c-4.14-4.14-9.05-8.01-11.12-8.53
		c-2.84-1.03-2.59-3.62,0.78-15.25c2.33-7.5,4.14-14.22,4.14-14.48c0-2.07-19.39-5.95-20.94-4.14
		c-2.33,2.07-23.78,80.66-22.49,81.69c2.33,2.07,31.28,11.89,34.64,11.89c2.33,0,7.5-3.62,11.63-8.01l7.5-8.27l-0.52,8.53
		l-0.78,8.53l21.97,5.95C442.42,3786.56,446.81,3786.56,446.81,3779.32z M541.69,3782.16c11.12-1.55,20.42-3.1,20.94-3.36
		c0.26-0.52-0.26-4.39-1.03-8.79c-1.29-6.46-3.1-8.27-7.5-8.27c-5.43,0-6.2-1.81-8.79-21.2c-6.2-45.24-4.39-40.85-17.32-40.85
		h-11.63l1.55,8.53c8.53,51.96,8.53,55.32-1.55,57.39c-5.43,1.29-7.5,2.84-6.46,5.69c0.78,2.07,1.55,5.95,1.55,8.79
		C511.44,3785.78,513.77,3786.04,541.69,3782.16z M593.66,3772.6c1.55-2.33,3.1-8.27,3.36-13.18l0.26-9.31l3.36,10.34
		c3.36,10.86,6.2,11.89,19.91,6.72l6.46-2.33l-10.08-38.52c-5.43-20.94-10.6-39.55-11.12-41.36c-0.78-2.07-3.62-2.33-11.12-0.26
		c-9.82,2.33-10.34,3.36-12.15,14.48l-2.07,12.15l-2.84-9.82c-1.55-5.43-3.88-9.82-5.43-9.82c-8.27,0-19.39,3.36-19.39,5.95
		c0,1.55,3.62,16.29,8.01,32.83c4.39,16.55,9.05,34.38,10.34,39.81c2.59,9.57,3.1,9.82,10.86,8.27
		C586.68,3777.51,591.85,3774.92,593.66,3772.6z M647.43,3752.69c2.33-2.07,2.84-3.88,1.29-3.88s-2.84-2.07-2.84-4.39
		c0-3.36-0.78-3.62-2.84-1.55c-1.55,1.55-4.39,2.33-6.2,1.81c-4.91-1.81-3.36,7.5,1.29,9.82
		C643.55,3756.83,643.29,3757.08,647.43,3752.69z M329.18,3750.36c2.59,1.03,3.1,0,2.07-3.88c-1.55-5.69-8.27-8.27-12.67-4.4
		c-1.81,1.81-1.55,3.88,1.29,7.24c2.33,2.59,4.39,3.62,4.91,2.33C325.31,3750.1,327.12,3749.59,329.18,3750.36z M713.09,3732.27
		c12.93-7.5,14.22-9.31,14.99-18.36c1.29-13.96-0.78-19.65-10.34-29.47c-8.27-8.53-16.03-9.82-28.44-4.4
		c-3.36,1.55-5.69-0.78-11.12-11.12l-6.46-13.18l-10.34,5.17c-9.82,4.91-10.08,5.69-6.72,11.12c1.81,3.1,11.12,19.91,20.68,37.49
		c9.57,17.32,18.87,31.54,20.42,31.54C697.58,3740.8,705.34,3736.92,713.09,3732.27z M285.75,3707.45
		c6.46-14.22,12.93-25.85,14.22-25.85c1.29,0,6.72,2.33,12.15,5.17l10.08,4.91l3.88-5.69c9.31-14.22,8.53-15.51-13.7-26.37
		c-11.38-5.43-20.94-9.57-21.46-8.79c-1.29,1.29-26.89,55.07-31.8,66.18c-3.36,8.01-3.36,8.53,3.36,12.15
		c4.14,2.07,8.27,3.88,9.31,4.14C272.83,3733.3,279.29,3721.67,285.75,3707.45z M762.47,3703.31l15.25-11.63l-5.69-7.76
		c-6.72-9.05-7.24-9.05-16.03-2.07c-6.46,4.91-7.5,5.17-11.12,1.55c-3.62-3.36-3.1-4.39,4.14-9.82c9.31-6.98,9.82-10.08,2.84-16.55
		c-5.17-4.65-5.43-4.65-13.44,1.29c-7.76,5.69-8.27,5.69-11.63,1.03c-3.36-4.4-2.84-5.69,4.65-11.89l8.27-6.98l-6.2-9.05
		c-6.72-9.82-6.2-9.82-23.78,3.62c-7.5,5.43-11.38,10.6-10.6,12.67c1.29,3.88,45.76,67.22,47.05,67.48
		C746.7,3715.2,753.94,3710.03,762.47,3703.31z M258.35,3679.53l31.8-30.76l-6.98-4.65c-6.98-4.39-7.24-4.39-13.44,1.29
		c-5.95,5.69-6.2,5.69-12.67,1.03c-4.14-3.1-5.95-6.46-4.91-8.79c4.39-11.38,3.88-14.99-3.62-19.65
		c-3.88-2.33-10.34-8.01-13.96-12.15c-6.46-7.5-6.72-7.5-14.99-3.1c-10.6,5.17-12.93,3.62-5.69-4.14c6.98-7.5,6.98-8.27-1.81-18.1
		l-6.98-8.01l-30.25,32.06l-29.99,32.06l7.5,8.27c7.24,8.27,7.76,8.27,15.25,4.4c11.89-6.2,14.48-4.65,6.46,3.88l-7.5,7.76
		l8.53,8.53l8.53,8.27l29.73-31.02c16.55-17.06,29.21-28.7,28.18-25.85c-1.03,2.84-8.27,21.72-15.77,41.88l-13.44,36.45l5.43,5.43
		c2.84,3.1,6.2,5.43,6.98,5.43C225.77,3710.03,241.03,3696.33,258.35,3679.53z M804.35,3669.96c7.76-7.5,12.15-13.7,12.15-17.58
		c0-9.05-10.34-23.01-21.2-28.95c-7.24-3.88-11.12-8.53-16.03-19.91c-3.36-8.27-5.69-14.99-5.17-14.99
		c0.78,0,14.48,11.12,30.76,24.56s30.25,24.56,30.76,24.56c0.78,0,6.46-5.43,12.93-12.15c14.99-15.77,15.51-23.78,2.59-35.68
		c-17.58-16.03-32.57-32.32-29.99-32.32c1.03,0,16.29,4.65,34.13,10.34c24.3,7.76,32.57,9.57,34.13,6.98
		c7.5-10.86,7.5-10.6-25.08-43.17l-31.8-31.8l-4.14,7.76c-3.62,7.5-3.62,8.01,2.33,13.7c6.2,5.95,6.2,7.24-0.78,17.32
		c-1.55,2.33-4.39,2.59-10.34,1.03c-7.5-2.33-8.53-1.81-12.67,4.91c-2.33,4.14-6.72,8.79-9.57,10.34
		c-3.1,1.55-9.57,8.27-14.48,14.99s-12.93,15.77-17.58,19.91l-8.53,7.76l3.88,12.41c2.07,6.72,3.1,12.15,2.33,12.15
		c-0.52,0-4.14-3.36-7.76-7.76c-3.36-4.14-7.76-7.76-9.57-7.76c-4.14,0-12.67,9.31-11.63,12.67c1.55,3.62,54.03,62.3,56.1,62.3
		C791.17,3681.59,797.37,3676.42,804.35,3669.96z M557.2,3672.29c119.96-20.42,230.09-118.4,268.09-238.1
		c12.15-38.78,15.51-63.08,15.51-111.94c0-49.38-4.65-79.63-18.1-116.85c-29.47-81.95-93.59-155.89-169.85-196.22
		c-49.12-25.59-102.63-38.52-160.8-38.52c-40.85,0-73.16,5.17-109.61,17.06c-61.79,20.42-116.08,57.65-158.99,109.1
		c-57.91,69.8-84.28,148.39-80.92,240.95c3.36,93.07,34.38,165.71,99.27,232.93c60.75,62.82,130.04,97.21,213.28,105.74
		C481.46,3679.01,528.77,3677.2,557.2,3672.29z M167.35,3599.38c24.82-16.8,28.7-21.46,28.7-33.61c0-11.12-14.22-26.37-24.3-26.37
		c-7.76,0-48.09,25.59-55.84,35.42c-9.05,11.63-4.39,30.51,9.82,38.26C135.55,3618.51,142.53,3616.19,167.35,3599.38z M134,3550.78
		c17.06-10.86,31.54-20.68,32.32-21.97c1.81-2.59-5.69-17.84-8.79-17.84c-1.81,0-66.7,39.81-69.8,42.92
		c-2.33,2.07,8.79,19.13,11.89,18.1C101.16,3571.2,116.68,3561.9,134,3550.78z M100.65,3534.23c4.65-2.59,4.65-3.36,1.03-10.34
		c-3.1-5.95-5.69-7.76-11.89-7.76c-5.17,0-7.5-1.03-6.98-3.1c2.07-5.69,8.79-5.17,18.87,1.55c12.41,8.53,25.85,8.79,37.74,0.78
		c14.74-9.82,16.55-25.08,4.65-37.74c-4.91-5.17-7.5-5.95-18.36-4.91c-15.25,1.55-16.29,2.33-13.18,11.63
		c1.81,5.69,4.39,7.5,10.86,8.01c4.91,0.52,8.01,2.07,7.24,3.88c-1.81,5.43-8.79,4.91-18.61-1.81c-12.15-8.27-23.78-8.53-35.16-0.78
		c-16.03,10.6-18.1,25.08-5.69,38.52C75.83,3537.34,92.63,3538.37,100.65,3534.23z M914.23,3521.31
		c10.08-20.17,6.46-37.23-11.38-50.67c-12.67-9.82-34.64-11.38-47.05-3.62c-8.01,4.91-18.61,22.49-18.61,31.02
		c0,3.88,63.08,36.19,68.51,35.16C907.25,3532.94,910.87,3527.51,914.23,3521.31z M91.86,3473.48c20.17-2.59,38-5.43,39.55-6.46
		c2.07-1.29,2.07-3.88,0-8.79c-2.33-6.2-3.36-6.72-11.38-5.43c-8.27,1.81-8.79,1.29-10.6-6.72c-1.81-7.5-1.03-9.31,4.39-13.44
		l6.2-4.65l-3.88-18.1c-4.14-17.58-4.39-18.1-14.48-21.2l-10.34-3.1l9.82-0.78c9.57-0.78,9.57-1.03,9.57-12.41
		c0-7.76-1.03-11.38-3.62-11.38c-5.69,0-79.88,10.34-80.92,11.38c-0.52,0.26,0,5.17,1.29,10.6c1.81,8.53,3.36,10.34,12.15,13.18
		c8.27,2.33,9.05,3.1,3.88,3.36c-11.12,0.52-13.96,3.88-12.15,14.48c0.78,5.43,1.81,10.08,2.33,10.34
		c0.52,0.52,17.58-1.81,38.26-5.17c20.68-3.1,37.74-5.43,38.26-5.17c0.52,0.26-14.48,11.38-33.09,24.3
		c-18.36,13.18-33.61,24.82-33.61,26.11c0,5.95,5.69,15.77,8.53,14.74C53.6,3478.65,71.69,3476.07,91.86,3473.48z M942.41,3455.38
		c0.52-0.26,1.55-4.14,2.33-8.53l1.81-8.27l-37.23-18.1c-22.75-10.86-34.64-17.84-30.76-17.84c3.62,0,21.97,2.07,40.85,4.65
		c18.87,2.59,34.64,3.88,35.16,3.1c0.52-0.78,1.81-5.17,2.59-9.82c1.81-7.5,1.03-8.53-8.01-13.44l-9.82-5.43l10.34,0.78
		c9.82,0.52,10.08,0.26,11.89-9.31c1.81-11.38,3.62-10.86-39.04-14.74c-53-4.91-53-4.65-6.46-16.55l41.36-10.6l0.78-9.31l0.78-9.05
		l-38.26-8.79c-20.94-4.65-40.33-9.05-42.92-9.82c-4.14-1.03-4.65,0.26-3.88,7.5s2.07,8.79,9.31,10.6c6.2,1.81,8.27,3.36,7.24,6.2
		c-0.78,2.33-1.55,6.2-1.55,8.79c0,3.1-2.59,5.43-7.76,6.46c-4.91,1.03-7.76,3.36-7.76,5.95c0,2.33-0.78,10.34-1.55,17.84
		l-1.81,13.18l10.08,5.69l10.08,5.43l-9.57-1.29c-5.43-0.78-10.34-0.26-11.12,1.03c-0.78,1.03-2.07,9.57-2.84,19.13
		c-1.55,16.29-1.29,17.06,5.17,19.91c11.12,5.17,8.27,20.42-3.88,20.42c-5.69,0-8.27,1.55-10.08,6.72
		c-1.55,3.62-2.59,7.76-2.59,9.05C855.28,3459,939.82,3457.45,942.41,3455.38z M109.7,3312.68c-0.52-18.36-1.55-35.16-2.84-37.74
		c-2.07-5.17-19.13-14.74-26.37-14.99c-2.59,0-3.36-0.78-1.55-1.29c1.55-0.78,9.57,0.52,17.84,2.59c8.27,2.07,16.03,3.1,17.06,2.07
		c1.03-1.03,2.59-5.95,3.36-10.86c0.52-4.91,2.07-12.15,2.84-16.03c1.03-4.91,0-10.08-3.88-16.29l-5.17-9.05l7.76,4.14
		c4.39,2.07,8.27,3.62,8.79,3.1c2.07-2.33,9.05-17.58,9.05-19.91c0-1.55-3.62-6.98-8.27-12.15l-8.27-9.57l10.86,5.69l10.86,5.43
		l5.69-11.63c3.1-6.2,5.17-11.89,4.39-12.41c-0.52-0.52-18.36-9.31-39.3-19.39l-38.26-18.36l-4.91,8.27
		c-6.46,10.6-6.46,10.86,1.55,21.46c6.98,9.05,5.95,11.38-2.59,4.91c-2.84-2.07-6.46-3.88-8.01-3.88
		c-2.84,0-11.63,15.77-11.63,20.68c0,1.29,9.05,6.98,19.91,12.67l20.17,10.08l-18.1-1.29c-17.06-1.29-18.87-1.03-26.63,5.69
		c-10.08,8.53-11.38,22.49-2.84,33.35c6.46,8.01,10.08,8.53,16.03,1.55c3.62-4.14,3.88-6.2,1.29-10.08
		c-3.88-6.2-1.03-13.18,5.69-13.18c11.38,0,28.7,5.95,32.57,11.38c3.36,4.91,3.36,5.95-2.07,10.34c-5.95,4.65-5.95,4.65-6.72-1.81
		c-0.52-4.91-2.84-6.98-8.27-8.27c-4.39-1.03-8.53-1.81-9.57-2.07c-0.78-0.26-2.59,2.33-3.36,5.95
		c-5.43,20.68-5.43,20.17,2.07,22.75c6.2,2.33,5.17,2.84-8.01,2.84c-18.87,0.26-29.47,5.69-34.38,17.32
		c-3.36,8.01-3.36,10.08,0.52,18.1c6.2,12.67,13.18,16.03,19.91,9.05c4.91-4.65,4.91-5.95,1.81-11.89c-3.1-5.69-3.1-7.24,0.52-10.86
		c3.36-3.1,7.24-3.62,18.61-2.33c14.48,1.81,22.23,6.46,22.23,13.18c0,3.1-5.43,6.46-10.6,6.46c-1.55,0-2.33-1.81-1.81-4.39
		c0.52-2.84-1.81-4.91-8.01-6.46c-4.65-1.29-9.31-1.81-10.08-1.03c-2.84,3.1-5.17,26.11-2.59,27.66c1.55,1.03,12.15,2.84,23.78,3.88
		c20.42,2.33,20.17,2.33-18.36,3.1l-39.55,0.78v12.67v12.93h43.69h43.95L109.7,3312.68z M941.37,3286.83l17.58-1.55l-0.78-9.31
		c-0.78-8.53-1.81-9.57-12.41-13.18l-11.63-3.88l11.12-0.78c9.82-0.78,10.86-1.55,10.86-7.76c0-14.48-0.78-14.74-46.28-10.86
		l-41.62,3.36v9.82c0,9.31,0.52,10.08,11.12,13.18l10.86,3.36l-9.57,0.78c-9.57,0.78-9.82,1.03-9.82,11.38v10.6l26.63-1.81
		C911.9,3289.41,931.81,3287.86,941.37,3286.83z M888.63,3207.2c13.18-4.91,25.08-9.05,26.11-9.05c1.29,0,3.36,3.62,4.91,7.76
		c1.29,4.4,3.62,7.76,4.91,7.76c4.39,0,18.61-5.69,18.61-7.5c0-1.55-12.67-40.07-16.8-51.19c-0.78-2.59-3.36-2.33-10.86,0.26
		c-9.57,3.36-10.34,4.91-8.27,15.51c0.78,4.39-3.1,6.72-26.11,14.99c-14.74,5.69-27.4,10.6-27.92,11.12
		c-2.07,2.07,5.17,19.39,8.01,19.39C863.04,3216.25,875.19,3212.11,888.63,3207.2z M885.79,3160.92
		c15.77-13.96,28.95-27.15,28.95-29.73c0-2.33-1.55-6.46-3.1-8.79c-3.1-3.88-6.72-3.36-44.72,6.2
		c-22.75,5.69-41.88,10.86-42.4,11.38c-0.52,0.78,1.03,3.88,3.1,7.5c3.62,5.17,5.69,6.2,12.67,5.17c7.76-1.29,8.79-0.78,11.38,6.2
		c2.59,6.98,2.33,8.53-2.84,13.44c-5.17,4.91-5.69,6.72-3.36,13.18c2.33,6.72,3.1,7.24,6.98,4.14
		C854.77,3187.81,869.76,3174.88,885.79,3160.92z M159.85,3149.03l5.17-10.08l-5.69-3.88c-12.15-7.24-69.54-40.33-70.58-40.33
		c-0.78,0-3.62,4.65-6.46,10.34l-5.17,10.08l5.69,3.88c7.24,4.39,70.32,40.33,71.09,40.33
		C154.42,3159.37,157.01,3154.72,159.85,3149.03z M856.58,3111.55c17.06-12.41,31.28-23.27,31.54-24.3
		c0.26-0.78-3.1-8.53-7.76-17.06c-7.76-14.22-9.05-15.51-18.1-16.29c-8.27-0.78-11.12,0.52-18.87,8.27
		c-5.17,5.17-11.38,9.31-13.7,9.31s-7.24,1.81-10.6,4.14c-3.62,2.33,3.36-4.91,14.99-16.29l21.72-20.17l-6.72-6.2l-6.72-6.2
		l-12.15,10.08c-6.98,5.69-18.36,15.25-25.59,21.2c-13.18,11.12-21.72,13.96-21.72,7.24c0-2.07,11.12-13.44,24.56-25.34
		c13.44-11.89,24.56-22.75,24.56-24.3c0-1.55-2.84-5.43-6.46-8.79l-6.2-5.95l-25.34,22.75c-13.96,12.67-26.37,24.56-27.66,26.63
		c-4.14,6.98-0.26,29.47,6.2,34.64c6.2,5.17,26.89,6.46,29.73,2.07c0.78-1.29,2.84-2.59,4.14-2.59c1.55,0,0.78,2.59-1.29,5.69
		c-2.33,3.1-4.14,7.5-4.14,9.82c0,6.2,18.87,36.45,21.97,35.16C824.52,3134.55,839.77,3123.95,856.58,3111.55z M181.57,3117.75
		c3.88-5.69,6.72-10.86,6.2-11.12c-0.52-0.52-13.18-9.31-28.44-19.65c-15.51-10.34-27.92-19.91-27.92-20.94
		c0-1.03,1.29-2.84,2.59-3.62c4.39-2.59,2.84-5.95-5.17-11.63l-7.5-5.43l-14.22,21.46l-14.48,21.2l8.01,4.91
		c7.24,4.65,8.01,4.91,12.67,0.52c4.65-4.14,5.95-3.62,31.54,14.99c14.74,10.86,27.4,19.65,28.18,19.65
		C174.07,3128.35,177.95,3123.7,181.57,3117.75z M215.69,3063.2l-4.65-11.12l8.27,7.76l8.27,7.76l6.2-7.76
		c3.36-4.14,5.95-8.53,5.43-9.31c-1.55-4.4-54.81-59.2-57.39-59.2c-1.55,0-5.69,2.84-8.79,6.2c-5.43,5.95-5.69,6.46-1.81,15.77
		c5.69,13.44,5.17,14.22-3.1,4.4l-6.98-8.53l-7.24,7.5l-7.24,7.5l30.25,31.54l30.25,31.54l6.46-6.46
		C220.09,3074.58,220.09,3074.58,215.69,3063.2z M787.29,3017.7l19.65-24.04l-6.72-6.98c-6.2-6.2-7.24-6.46-13.96-3.1
		c-12.15,6.2-12.67,6.2-6.46-0.52c3.1-3.36,5.69-7.24,5.69-8.53c0-3.36-10.86-14.22-13.96-13.96c-1.55,0-14.74,14.48-29.21,31.8
		l-26.37,32.06l7.5,6.98l7.5,6.98l9.82-5.95l9.82-5.95l-4.65,6.2c-8.01,11.38-8.01,13.18-0.26,19.65l7.5,6.2l7.24-8.53
		C764.28,3045.62,776.43,3030.89,787.29,3017.7z M249.04,3043.04c3.62-3.88,3.88-6.46,1.81-12.67c-2.33-6.72-2.07-8.01,3.62-11.89
		c5.95-3.88,6.98-3.88,13.44,1.03l6.98,4.91l14.74-8.01c13.7-7.5,14.99-9.05,14.99-17.32l0.26-9.05l4.91,5.95
		c4.65,5.69,4.91,5.69,13.96,1.29c5.17-2.33,9.31-5.43,9.31-6.46c0-2.07-37.74-71.61-39.81-73.94c-0.52-0.26-5.17,1.81-10.08,4.65
		l-9.31,5.69l6.46,12.93c6.98,13.44,5.69,13.7-9.57,1.29c-9.31-7.24-9.82-7.24-17.58-3.36c-4.39,2.33-8.01,4.65-8.01,5.17
		s8.01,7.24,17.84,14.74l17.84,13.44l3.1,19.13c1.55,10.6,2.33,19.91,1.55,20.68c-0.78,1.03-14.74-11.38-31.02-27.4L225,2954.62
		l-8.01,4.14l-7.76,4.14l7.76,21.46c18.36,50.15,23.78,63.86,25.59,63.86C243.61,3048.21,246.46,3045.88,249.04,3043.04z
		 M712.84,3016.15c15.25-8.01,31.02-36.45,31.28-56.1c0-9.05-1.55-13.44-6.46-18.87c-7.5-8.01-20.94-9.05-29.73-2.07
		c-4.91,3.88-5.17,5.43-2.33,11.63c2.59,5.69,4.65,6.72,11.12,6.2c6.72-0.52,8.01,0.52,8.79,5.95c0.26,3.62-2.84,12.67-7.24,20.17
		c-6.2,10.6-9.31,13.44-14.22,13.44c-5.17,0-6.46-1.29-6.46-6.72c0-5.17,1.03-6.2,4.65-5.17c3.1,1.03,5.95-0.78,9.05-5.95
		c2.33-4.14,4.39-8.27,4.39-9.05c0-2.84-20.94-14.74-23.53-13.18c-3.62,2.33-23.53,42.66-22.49,45.76
		c1.29,3.62,25.59,17.32,31.28,17.58C703.53,3019.77,708.96,3018.22,712.84,3016.15z M358.91,2980.99c0-1.03-2.84-8.53-6.46-16.55
		c-8.01-18.1-8.27-20.42-0.52-9.05c7.76,11.63,21.46,20.42,31.28,20.42c4.39,0,12.93-2.33,18.87-5.17l10.86-4.91l-13.18-39.04
		c-14.48-43.43-11.63-41.11-35.16-30.76c-14.22,5.95-22.75,22.75-20.17,39.3c2.33,13.7,1.29,12.41-8.53-11.12
		c-4.65-10.6-8.79-19.65-9.05-20.17c-0.52-0.52-5.95,1.55-11.63,4.65l-10.6,5.17l3.62,8.53c8.79,20.42,25.34,57.13,28.7,63.86
		l3.88,7.5l9.05-5.17C354.78,2985.38,358.91,2982.28,358.91,2980.99z M651.05,2970.13c18.1-47.05,21.2-56.36,19.91-59.72
		c-0.78-2.07-8.01-6.2-16.03-9.57c-17.84-7.24-25.34-5.43-34.13,7.5c-4.14,6.2-5.95,12.67-5.95,21.2c0,11.12,1.03,13.18,9.05,19.13
		l8.79,6.98l-4.91,13.18c-2.84,7.5-5.17,13.7-5.17,13.96c0,0.78,16.03,8.01,18.61,8.27C642,2991.33,646.65,2981.77,651.05,2970.13z
		 M608.13,2935.49c6.72-22.23,11.63-40.85,10.86-41.62c-0.52-0.78-8.79-4.14-18.1-7.5l-16.55-5.95l-2.84,8.01
		c-4.14,12.15-3.62,13.96,5.69,16.55c5.95,1.81,8.53,4.4,9.05,8.53c0.78,5.17,0,5.95-3.88,4.4c-12.93-5.17-18.1-4.65-19.65,1.55
		c-2.84,10.34-2.07,11.89,7.24,14.99s10.08,4.4,7.5,11.12c-1.29,3.62-2.84,3.62-11.63,0.52l-10.08-3.62l-2.59,10.6
		c-1.55,5.69-2.33,10.86-1.81,11.38c1.55,1.81,28.44,11.12,31.8,11.38C594.69,2975.82,601.41,2957.72,608.13,2935.49z
		 M433.37,2962.63c3.1-1.29,5.69-2.84,5.69-3.36c0-0.78-3.36-16.03-7.76-34.38c-4.14-18.1-8.27-35.68-9.05-39.04
		c-1.29-5.69-2.33-5.95-12.41-4.4c-5.95,1.03-11.63,2.59-12.93,3.62c-1.03,1.03,2.84,20.17,8.79,42.4
		C417.6,2971.94,415.53,2969.1,433.37,2962.63z M558.75,2955.91c3.88-25.59,7.5-70.58,6.2-74.2c-1.03-2.59-4.91-4.14-10.6-4.14
		c-8.01,0-9.82,1.29-14.48,9.82l-5.43,9.57l1.29-11.12c1.03-10.08,0.52-11.12-5.69-12.41c-3.88-0.78-9.05-2.07-11.38-2.59
		c-3.1-1.03-4.91,0.52-5.69,4.65c-3.1,14.74-9.57,79.88-8.01,82.21c0.78,1.29,5.95,2.59,11.38,2.59c8.53,0,10.34-1.03,13.18-7.76
		c4.91-11.63,7.5-11.63,5.95-0.26c-1.29,9.57-1.03,10.34,5.95,11.38C557.2,2966,557.2,2965.74,558.75,2955.91z M495.93,2918.94
		v-41.36h-16.8c-14.99,0-17.58,0.78-25.85,8.01c-20.42,18.1-17.58,54.55,5.43,69.8c5.17,3.36,12.15,4.91,22.49,4.91h14.74V2918.94z"
		/>
	<path class="st0" d="M475.77,3758.63c0.52-3.36,2.07-5.95,3.36-5.95c1.55,0,2.84,2.59,3.36,5.95c0.52,3.88-0.52,5.69-3.36,5.69
		S475.25,3762.51,475.77,3758.63z"/>
	<path class="st0" d="M365.64,3743.12c2.33-7.76,3.1-8.79,6.2-5.69c3.62,3.62,0.52,11.38-4.39,11.38
		C364.86,3748.81,364.34,3747.26,365.64,3743.12z"/>
	<path class="st0" d="M700.43,3710.55c-3.88-6.98-3.62-8.27,1.03-8.27c5.17,0,8.01,7.24,4.39,10.86
		C704.05,3714.94,702.24,3714.17,700.43,3710.55z"/>
	<path class="st0" d="M239.99,3670.99c0-6.46,4.65-11.63,7.76-8.53c1.81,1.81,1.29,4.14-2.59,7.5
		C241.28,3673.58,239.99,3673.84,239.99,3670.99z"/>
	<path class="st0" d="M787.03,3650.83c-4.91-5.43-3.62-10.6,2.33-10.6c5.69,0,9.57,9.31,5.43,12.67
		C792.2,3654.97,790.39,3654.45,787.03,3650.83z"/>
	<path class="st0" d="M830.98,3606.88c-3.1-3.36-3.62-5.43-1.55-6.72c3.36-2.07,10.34,3.1,10.34,8.01
		C839.77,3613.34,836.15,3612.57,830.98,3606.88z"/>
	<path class="st0" d="M806.42,3585.68c-5.17-4.14-5.43-5.17-1.55-6.46c5.17-2.07,9.82,2.07,8.53,7.5
		C812.89,3590.08,811.85,3590.08,806.42,3585.68z"/>
	<path class="st0" d="M852.18,3550.52c-4.91-1.29-6.2-4.65-2.33-6.98c1.03-0.78,4.14,0.78,6.72,3.62
		C861.23,3552.33,860.71,3552.85,852.18,3550.52z"/>
	<path class="st0" d="M446.81,3663.24c-72.39-9.05-139.6-42.92-193.89-97.72c-51.96-52.74-82.99-112.72-94.62-182.52
		c-5.43-34.38-3.62-103.67,3.62-135.73c14.22-60.75,40.59-110.13,83.76-156.41c47.31-50.67,98.24-81.18,164.68-98.76
		c33.61-9.05,105.48-11.38,141.16-4.65c83.5,15.51,156.93,61.27,208.89,130.04c21.97,29.47,34.38,50.93,45.76,79.37
		c25.34,63.6,30.25,147.62,12.67,217.16c-31.02,122.02-144,226.99-266.02,246.89C528.77,3664.79,469.56,3666.08,446.81,3663.24z
		 M540.92,3628.6l9.31-3.88l-6.98-14.22c-3.88-7.76-7.76-14.22-8.53-14.22s-4.65,2.59-8.53,5.95l-7.5,5.95l5.95,12.15
		c3.36,6.72,6.2,12.15,6.46,12.15C531.35,3632.47,535.75,3630.66,540.92,3628.6z M592.62,3609.72
		c14.74-13.44,19.39-44.21,8.79-59.98c-3.36-4.65-9.31-11.12-13.18-13.96c-7.24-5.17-9.57-5.43-83.25-4.65
		c-41.62,0.52-78.33,0.26-81.69-0.78c-5.69-1.81-5.69-2.07-1.03-5.43c3.36-2.33,12.41-3.62,27.66-3.62
		c24.04,0,36.19-3.62,39.3-11.89c3.88-10.08-5.69-13.7-54.81-21.97c-38.52-6.2-56.62-11.63-95.14-28.44
		c-34.9-15.25-44.98-17.58-53.77-11.89c-8.01,5.43-13.18,25.85-11.12,44.98c2.07,20.17,20.17,50.41,26.37,44.21
		c1.03-1.03,0-10.6-2.33-21.46c-9.05-43.95-5.43-46.53,43.43-31.02c28.18,9.05,74.71,17.84,108.32,20.94
		c28.7,2.33,19.65,6.2-14.99,6.2c-43.43,0-54.03,5.69-43.69,23.27c9.05,15.25,13.44,15.77,101.34,14.99
		c78.33-0.78,79.63-0.78,90.48,5.17c6.98,3.62,10.86,7.5,10.86,10.86c0,7.24-4.39,8.79-7.76,2.33
		c-5.69-10.34-32.06-16.55-44.21-10.08c-5.95,3.36-6.46,12.93-0.78,24.04c6.2,12.15,21.46,30.25,27.92,32.83
		C576.33,3617.22,586.42,3615.15,592.62,3609.72z M704.56,3495.97l5.95-3.62l-6.98-12.67c-7.5-13.96-10.34-14.99-18.87-8.01
		l-5.69,4.65l6.72,13.44c4.65,9.05,8.01,12.93,10.08,11.89C697.58,3500.63,701.46,3498.04,704.56,3495.97z M596.5,3490.54
		c5.69-4.39,5.95-4.91,1.81-12.67c-4.91-9.57-4.65-9.57-14.48-4.4c-9.05,4.65-9.05,4.4-3.88,14.22
		C584.61,3496.75,587.97,3497.27,596.5,3490.54z M559.01,3484.34c7.76-6.2,7.5-7.24-0.52-19.65c-2.33-3.1-7.24-1.29-18.36,6.72
		c-1.29,1.03,8.27,18.87,10.08,18.87C551,3490.29,554.88,3487.7,559.01,3484.34z M655.44,3472.45
		c11.89-17.84,11.12-28.18-3.88-43.95c-6.46-6.72-13.96-11.38-23.01-13.96c-23.27-6.98-64.11-10.34-101.6-8.53
		c-19.13,0.78-50.67,2.33-69.8,3.1l-34.9,1.29l6.2-5.17c4.65-4.39,9.57-5.43,23.27-5.43c34.64,0,59.72-7.76,59.72-18.1
		c0-11.38-25.34-17.32-90.48-20.94c-41.11-2.07-57.65-4.4-89.19-11.38c-21.2-4.91-48.09-10.6-59.46-12.93
		c-31.54-6.46-57.39-1.29-63.6,12.67c-4.14,8.79,2.84,30.76,16.03,50.41c12.15,18.1,18.61,23.01,24.56,18.1
		c3.36-2.59,2.59-4.39-4.91-12.41c-11.63-11.89-18.1-25.08-16.29-32.32c3.36-13.7,29.99-15.25,86.86-5.17
		c29.73,5.43,50.15,7.24,99.02,8.53c41.62,1.29,62.3,2.84,64.37,4.91c1.81,1.81,2.59,3.1,1.81,3.36c-0.52,0-18.36,1.55-39.81,3.36
		c-41.11,3.62-53.77,7.24-56.88,17.32c-2.84,8.79,6.2,18.61,20.94,22.23c10.08,2.59,27.92,2.59,85.31,0.26
		c77.56-3.36,120.21-1.29,139.09,6.72c10.86,4.65,11.63,8.79,2.84,17.06c-3.62,3.36-6.46,6.98-6.46,7.76
		c0,1.03,3.62,6.72,8.01,12.67C642.26,3484.86,647.17,3484.86,655.44,3472.45z M420.7,3464.69c5.69-4.4,5.95-4.91,1.81-12.67
		c-4.91-9.57-4.65-9.57-14.48-4.4c-9.05,4.65-9.05,4.4-3.88,14.22C408.81,3470.9,412.17,3471.41,420.7,3464.69z M738.69,3460.3
		c9.57-11.89,14.48-31.54,14.48-57.91c0-32.06-6.72-47.31-24.82-56.36c-16.29-8.01-37.23-11.12-57.13-8.27
		c-22.75,3.36-69.54,3.1-79.37-0.26c-13.18-4.65-8.27-8.79,10.6-9.05c29.21-0.26,50.93-11.89,47.57-25.34
		c-2.07-8.53-6.46-10.6-46.53-22.75c-36.97-11.12-55.32-19.91-75.23-35.68c-33.61-27.15-43.43-33.61-50.41-33.61
		c-9.82,0-17.06,9.57-20.94,27.92c-6.46,31.54,9.31,111.68,22.23,111.68c2.84,0,3.62-1.81,2.59-5.69
		c-4.65-21.72-11.63-66.96-11.63-76.01c0-12.15,4.91-19.13,13.7-19.13c5.95,0,9.31,1.55,39.55,19.91
		c24.04,14.22,51.96,25.08,78.59,30.51c30.25,6.2,30.51,6.2,25.85,9.05c-2.07,1.55-16.03,2.59-31.02,2.59
		c-33.87,0-46.53,3.1-46.53,11.38c0,6.46,6.2,12.93,22.23,23.27c15.77,10.34,23.78,11.89,77.3,14.48
		c57.39,2.84,72.13,6.2,83.76,19.39c7.24,8.53,11.63,24.56,5.43,20.68c-1.29-0.78-2.59-3.1-2.59-4.91s-3.36-6.2-7.24-10.08
		c-8.79-8.53-20.94-9.31-27.66-1.81c-9.05,10.08,0,57.65,14.48,76.01C722.66,3468.83,731.97,3468.83,738.69,3460.3z M384.51,3456.94
		c6.2-4.65,6.2-4.65,1.29-12.93c-2.59-4.39-5.43-8.01-6.2-8.01c-1.03,0-9.31,5.17-14.99,9.31c-2.07,1.29,7.76,16.55,10.6,16.55
		C376.75,3461.85,381.15,3459.52,384.51,3456.94z M340.82,3325.86c0-2.33-8.01-16.55-9.31-16.55c-0.52,0-4.14,1.81-7.5,4.14
		c-7.5,4.91-8.01,9.05-2.33,17.84l4.14,6.46l7.5-5.43C337.46,3329.48,340.82,3326.38,340.82,3325.86z M312.38,3316.81
		c0-2.33-2.07-6.98-4.91-10.34l-4.65-5.69l-8.01,5.69l-8.01,5.69l5.17,8.79l5.17,8.53l7.5-4.14
		C309.02,3323.02,312.38,3319.14,312.38,3316.81z M246.71,3295.87c-1.03-4.65-2.33-21.2-3.1-36.97
		c-1.29-24.56-0.78-30.51,3.88-43.69c14.48-40.85,52.48-65.67,91.78-59.98c18.1,2.84,15.25,9.05-7.5,16.29
		c-28.95,9.31-39.3,25.85-27.92,44.72c8.01,13.7,28.95,17.06,49.64,7.76c20.68-9.57,48.34-5.69,64.37,8.79l9.31,8.53l-6.98,4.65
		c-8.79,5.69-8.79,10.08-0.26,18.1c8.27,7.76,9.05,7.76,16.03,1.29c8.79-8.27,7.5-20.42-3.88-35.16
		c-11.63-15.25-17.84-20.94-28.44-25.85c-9.82-4.4-40.07-4.91-61.27-0.78c-8.27,1.55-16.55,2.07-18.61,1.29
		c-7.24-2.84,1.03-11.12,18.36-19.39c9.05-4.39,18.61-10.86,20.94-14.48c9.05-13.7-2.33-33.35-23.27-40.07
		c-12.67-4.14-36.19-2.33-48.86,3.62c-23.53,11.38-48.86,46.02-57.39,77.82c-4.39,17.32-4.91,54.03-1.03,71.09
		C236.63,3301.56,250.07,3313.2,246.71,3295.87z M751.87,3289.93c4.39-2.33,7.76-4.39,7.76-4.91s-6.46-4.65-14.22-9.05
		c-7.76-4.4-21.2-14.99-29.73-23.27c-13.96-13.7-15.77-16.55-14.99-24.04c0.78-7.5,1.81-8.53,9.31-9.31
		c11.38-1.03,28.7,11.89,47.05,35.42c7.76,10.08,14.99,18.36,16.29,18.36c1.03,0,1.81-5.43,1.81-11.89
		c0-10.86-1.81-13.96-22.49-40.59c-26.37-33.35-45.24-53.26-65.41-68.25c-29.21-21.46-51.45-28.18-66.44-20.68
		c-7.5,3.88-8.27,3.88-16.55-2.33c-10.34-7.5-32.83-14.74-42.92-13.44c-6.72,0.78-7.24,0-9.05-13.18
		c-4.39-28.7-16.8-46.79-40.07-58.43c-27.66-13.44-55.32-8.27-79.88,15.25c-12.15,12.15-21.72,34.38-21.72,51.19
		c0,17.06,16.03,30.51,27.92,23.27c2.33-1.55,1.03-3.62-4.65-7.76c-4.39-3.36-7.76-8.27-7.76-11.38c0-7.5,13.7-28.18,25.85-39.3
		c13.7-12.41,24.82-13.96,46.79-6.98c26.89,8.53,39.81,27.15,33.87,48.09c-1.81,5.95-1.03,10.86,3.88,21.97
		c7.5,17.06,8.27,17.84,11.38,12.41c1.29-2.33,6.46-6.72,11.38-9.82c16.8-10.34,35.42-1.03,54.29,27.4l9.82,14.48l4.14-12.15
		c5.95-17.84,10.34-19.65,26.89-10.86c7.24,3.88,17.32,10.6,22.23,14.74c8.53,7.24,8.79,7.76,4.65,12.41
		c-8.53,9.31-10.08,19.39-5.43,33.09c5.95,17.84,24.56,44.98,41.36,60.24C732.74,3294.84,739.21,3296.39,751.87,3289.93z
		 M393.56,3282.43l7.76-5.95l-5.17-8.01l-5.17-8.01l-8.27,4.91l-8.27,5.17l4.39,9.05c2.33,4.91,4.91,9.05,5.69,9.05
		S389.42,3285.79,393.56,3282.43z M367.45,3261.23c-4.91-10.08-7.24-10.6-16.29-3.88c-6.2,4.91-6.2,5.17-1.81,14.22l4.14,9.31
		l9.05-5.43l9.05-5.17L367.45,3261.23z M608.39,3256.06c7.76-4.91,8.01-8.79,1.81-16.55c-4.65-5.95-4.91-5.95-12.67-1.29
		c-8.01,4.65-8.01,4.65-3.88,13.44C598.31,3261.49,599.6,3261.75,608.39,3256.06z M582.28,3233.57c-2.33-4.65-4.65-8.53-4.91-9.05
		c-1.55-1.81-16.8,7.5-16.8,10.08c0,1.55,1.81,5.95,4.14,10.08l4.39,7.24l8.53-5.17C586.42,3241.58,586.42,3241.58,582.28,3233.57z
		 M491.8,3163.77c4.91-3.62,4.65-4.65-5.17-19.39c-1.03-1.81-16.55,8.27-16.55,10.6c0,1.29,2.07,5.69,4.39,9.57
		C478.87,3172.3,480.68,3172.3,491.8,3163.77z M276.44,3129.38c4.39-2.07,7.5-4.65,6.98-5.69c-0.52-1.03-2.59-4.91-4.39-8.79
		c-4.39-8.53-6.98-8.79-15.51-2.33c-5.69,4.39-5.95,4.91-1.81,12.67C266.62,3134.81,266.36,3134.81,276.44,3129.38z M304.62,3113.61
		c3.62-2.33,6.98-4.65,7.24-4.91c1.81-1.29-8.53-16.55-11.12-16.55c-1.29,0-5.43,2.33-8.79,4.91c-5.69,4.4-5.95,4.91-1.81,12.67
		C295.06,3119.3,296.09,3119.56,304.62,3113.61z M635.28,3100.17c5.69-4.39,5.95-4.91,1.81-12.67c-2.33-4.65-5.17-8.27-6.2-8.27
		c-1.55,0-9.31,4.65-15.51,9.31c-2.07,1.29,7.76,16.55,10.6,16.55C627.52,3105.08,631.92,3102.76,635.28,3100.17z M604.77,3090.35
		c8.79-5.17,8.79-6.2,3.36-16.55c-3.62-7.24-4.39-7.5-9.57-4.39c-3.1,2.07-6.98,4.65-8.79,5.69c-2.33,1.29-2.07,3.88,1.03,10.6
		c2.33,4.91,4.91,9.05,5.43,9.05S600.64,3092.67,604.77,3090.35z"/>
	<path class="st0" d="M567.29,3591.89c-3.62-3.88-1.29-11.12,3.62-11.12c3.36,0,5.17,1.81,5.17,4.91
		C576.08,3590.59,570.13,3594.73,567.29,3591.89z"/>
	<path class="st0" d="M716.2,3429.01c0.78-10.6,5.95-14.22,8.53-6.2c1.81,5.69-2.59,15.77-6.72,15.77
		C716.46,3438.58,715.68,3434.44,716.2,3429.01z"/>
	<path class="st0" d="M137.62,3590.08c-0.78-2.07-0.78-5.17,0.26-6.72c2.84-4.65,27.92-20.42,30.25-19.13
		c5.69,3.62,1.03,11.63-11.38,19.65C139.17,3594.99,139.43,3594.73,137.62,3590.08z"/>
	<path class="st0" d="M878.55,3496.49c-14.48-7.76-15.25-12.67-1.81-12.41c10.6,0.26,19.91,6.98,19.91,14.48
		C896.65,3504.76,892.51,3504.25,878.55,3496.49z"/>
	<path class="st0" d="M83.84,3453.83c2.33-2.59,5.43-4.14,6.46-3.36c4.14,2.59,2.33,5.69-4.14,6.98
		C79.96,3458.49,79.71,3458.23,83.84,3453.83z"/>
	<path class="st0" d="M896.65,3437.29c0-3.36,1.03-3.62,5.95-1.03c8.53,4.39,8.53,4.91,1.03,4.91
		C898.97,3441.17,896.65,3439.87,896.65,3437.29z"/>
	<path class="st0" d="M909.57,3323.28c0-2.07,2.33-3.62,5.17-3.62c2.84,0,5.17,1.03,5.17,2.33c0,1.29-2.33,2.84-5.17,3.62
		C911.38,3326.38,909.57,3325.6,909.57,3323.28z"/>
	<path class="st0" d="M868.21,3148c0-1.81,2.84-4.14,6.46-4.91c6.46-1.03,6.46-1.03,2.33,3.62
		C871.83,3152.39,868.21,3152.91,868.21,3148z"/>
	<path class="st0" d="M825.55,3102.5c-2.33-3.88,1.03-7.76,6.72-7.76s6.2,2.84,1.81,7.24
		C830.21,3105.86,827.62,3105.86,825.55,3102.5z"/>
	<path class="st0" d="M852.7,3082.07c0-5.17,6.46-9.05,10.6-6.46c3.1,1.81,0.78,5.43-5.69,8.79
		C853.47,3086.73,852.7,3086.21,852.7,3082.07z"/>
	<path class="st0" d="M238.96,2997.54c-2.59-6.46-0.26-6.98,4.91-1.03c3.88,4.4,4.14,5.17,0.78,5.17
		C242.32,3001.67,239.73,2999.86,238.96,2997.54z"/>
	<path class="st0" d="M372.1,2948.93c-4.91-5.95-7.5-17.84-5.17-24.3c3.36-9.05,6.72-6.72,11.63,8.01
		c2.33,7.24,4.91,14.99,5.69,16.8C385.8,2953.84,375.72,2953.59,372.1,2948.93z"/>
	<path class="st0" d="M636.57,2927.99c-1.81-4.65,0.78-9.05,5.95-9.05c2.59,0,3.36,1.55,2.33,4.14c-0.78,2.33-1.55,5.17-1.55,6.46
		C643.29,2933.42,638.12,2932.13,636.57,2927.99z"/>
	<path class="st0" d="M465.17,2933.68c-7.24-9.05-4.65-29.21,4.39-32.32c2.33-0.78,3.1,3.88,3.1,17.32
		C472.67,2936.78,470.86,2940.4,465.17,2933.68z"/>
</g>
</svg>
