<?xml version="1.0" standalone="no"?>
<!DOCTYPE svg PUBLIC "-//W3C//DTD SVG 20010904//EN"
 "http://www.w3.org/TR/2001/REC-SVG-20010904/DTD/svg10.dtd">
<svg version="1.0" xmlns="http://www.w3.org/2000/svg"
 width="397.000000pt" height="383.000000pt" viewBox="0 0 397.000000 383.000000"
 preserveAspectRatio="xMidYMid meet">

<g transform="translate(0.000000,383.000000) scale(0.100000,-0.100000)"
fill="#000000" stroke="none">
<path d="M1810 3774 c-484 -46 -852 -212 -1189 -539 -350 -339 -524 -700 -563
-1167 -47 -569 151 -1082 573 -1482 393 -373 881 -555 1434 -533 600 24 1130
300 1488 775 335 446 442 998 301 1565 -103 413 -407 821 -808 1082 -313 205
-684 309 -1080 303 -67 0 -137 -3 -156 -4z m181 -104 c16 0 41 -62 41 -104 1
-61 -24 -102 -69 -113 l-37 -8 3 -58 2 -57 -45 0 -46 0 0 170 0 169 58 4 c31
1 63 2 70 0 8 -2 18 -3 23 -3z m-181 -22 c0 -13 3 -33 6 -45 5 -19 1 -23 -30
-28 -20 -4 -36 -12 -36 -19 0 -6 9 -61 18 -123 20 -121 20 -123 -33 -123 -26
0 -25 -2 -50 142 l-17 96 -32 -1 c-32 -2 -33 -2 -28 -49 4 -42 1 -50 -24 -76
-16 -16 -35 -31 -43 -33 -11 -4 -10 -14 3 -59 9 -29 16 -55 16 -56 0 -8 -75
-23 -81 -16 -9 8 -92 312 -87 316 9 8 121 46 134 46 9 0 29 -14 45 -31 l29
-32 -2 33 -3 33 85 23 c113 30 130 30 130 2z m367 11 c43 -6 79 -12 81 -13 1
-2 -1 -17 -4 -34 -5 -25 -12 -32 -29 -32 -21 0 -24 -7 -34 -82 -24 -175 -17
-158 -67 -158 l-45 0 6 33 c33 201 33 214 -6 222 -21 5 -29 11 -25 22 3 8 6
23 6 34 0 22 9 23 117 8z m201 -37 c6 -9 12 -32 13 -51 l1 -36 13 40 c13 42
24 46 77 26 l25 -9 -39 -149 c-21 -81 -41 -153 -43 -160 -3 -8 -14 -9 -43 -1
-38 9 -40 13 -47 56 l-8 47 -11 -38 c-6 -21 -15 -38 -21 -38 -32 0 -75 13 -75
23 0 6 14 63 31 127 17 64 35 133 40 154 10 37 12 38 42 32 18 -4 38 -14 45
-23z m208 -77 c9 -8 11 -15 5 -15 -6 0 -11 -8 -11 -17 0 -13 -3 -14 -11 -6 -6
6 -17 9 -24 7 -19 -7 -13 29 5 38 21 9 20 10 36 -7z m-1231 -9 c10 4 12 0 8
-15 -6 -22 -32 -32 -49 -17 -7 7 -6 15 5 28 9 10 17 14 19 9 2 -6 9 -8 17 -5z
m1485 -70 c50 -29 55 -36 58 -71 5 -54 -3 -76 -40 -114 -32 -33 -62 -38 -110
-17 -13 6 -22 -3 -43 -43 l-25 -51 -40 20 c-38 19 -39 22 -26 43 7 12 43 77
80 145 37 67 73 122 79 122 7 -1 37 -16 67 -34z m-1653 -96 c25 -55 50 -100
55 -100 5 0 26 9 47 20 l39 19 15 -22 c36 -55 33 -60 -53 -102 -44 -21 -81
-37 -83 -34 -5 5 -104 213 -123 256 -13 31 -13 33 13 47 16 8 32 15 36 16 4 0
29 -45 54 -100z m1844 -16 l59 -45 -22 -30 c-26 -35 -28 -35 -62 -8 -25 19
-29 20 -43 6 -14 -13 -12 -17 16 -38 36 -27 38 -39 11 -64 -20 -18 -21 -18
-52 5 -30 22 -32 22 -45 4 -13 -17 -11 -22 18 -46 l32 -27 -24 -35 c-26 -38
-24 -38 -92 14 -29 21 -44 41 -41 49 5 15 177 260 182 261 2 0 30 -20 63 -46z
m-1950 -92 l123 -119 -27 -18 c-27 -17 -28 -17 -52 5 -23 22 -24 22 -49 4 -16
-12 -23 -25 -19 -34 17 -44 15 -58 -14 -76 -15 -9 -40 -31 -54 -47 -25 -29
-26 -29 -58 -12 -41 20 -50 14 -22 -16 27 -29 27 -32 -7 -70 l-27 -31 -117
124 -116 124 29 32 c28 32 30 32 59 17 46 -24 56 -18 25 15 l-29 30 33 33 33
32 115 -120 c64 -66 113 -111 109 -100 -4 11 -32 84 -61 162 l-52 141 21 21
c11 12 24 21 27 21 4 0 63 -53 130 -118z m2112 -37 c30 -29 47 -53 47 -68 0
-35 -40 -89 -82 -112 -28 -15 -43 -33 -62 -77 -13 -32 -22 -58 -20 -58 3 0 56
43 119 95 63 52 117 95 119 95 3 0 25 -21 50 -47 58 -61 60 -92 10 -138 -68
-62 -126 -125 -116 -125 4 0 63 18 132 40 94 30 126 37 132 27 29 -42 29 -41
-97 -167 l-123 -123 -16 30 c-14 29 -14 31 9 53 24 23 24 28 -3 67 -6 9 -17
10 -40 4 -29 -9 -33 -7 -49 19 -9 16 -26 34 -37 40 -12 6 -37 32 -56 58 -19
26 -50 61 -68 77 l-33 30 15 48 c8 26 12 47 9 47 -2 0 -16 -13 -30 -30 -13
-16 -30 -30 -37 -30 -16 0 -49 36 -45 49 6 14 209 241 217 241 4 0 28 -20 55
-45z m-956 9 c464 -79 890 -458 1037 -921 47 -150 60 -244 60 -433 0 -191 -18
-308 -70 -452 -114 -317 -362 -603 -657 -759 -190 -99 -397 -149 -622 -149
-158 0 -283 20 -424 66 -239 79 -449 223 -615 422 -224 270 -326 574 -313 932
13 360 133 641 384 901 235 243 503 376 825 409 102 10 285 3 395 -16z m-1508
-282 c96 -65 111 -83 111 -130 0 -43 -55 -102 -94 -102 -30 0 -186 99 -216
137 -35 45 -17 118 38 148 38 21 65 12 161 -53z m-129 -188 c66 -42 122 -80
125 -85 7 -10 -22 -69 -34 -69 -7 0 -258 154 -270 166 -9 8 34 74 46 70 6 -3
66 -39 133 -82z m-129 -64 c18 -10 18 -13 4 -40 -12 -23 -22 -30 -46 -30 -20
0 -29 -4 -27 -12 8 -22 34 -20 73 6 48 33 100 34 146 3 57 -38 64 -97 18 -146
-19 -20 -29 -23 -71 -19 -59 6 -63 9 -51 45 7 22 17 29 42 31 19 2 31 8 28 15
-7 21 -34 19 -72 -7 -47 -32 -92 -33 -136 -3 -62 41 -70 97 -22 149 18 20 83
24 114 8z m3147 -50 c39 -78 25 -144 -44 -196 -49 -38 -134 -44 -182 -14 -31
19 -72 87 -72 120 0 15 244 140 265 136 6 -1 20 -22 33 -46z m-3181 -185 c78
-10 147 -21 153 -25 8 -5 8 -15 0 -34 -9 -24 -13 -26 -44 -21 -32 7 -34 5 -41
-26 -7 -29 -4 -36 17 -52 l24 -18 -15 -70 c-16 -68 -17 -70 -56 -82 l-40 -12
38 -3 c37 -3 37 -4 37 -48 0 -30 -4 -44 -14 -44 -22 0 -309 40 -313 44 -2 1 0
20 5 41 7 33 13 40 47 51 32 9 35 12 15 13 -43 2 -54 15 -47 56 3 21 7 39 9
40 2 2 68 -7 148 -20 80 -12 146 -21 148 -20 2 1 -56 44 -128 94 -71 51 -130
96 -130 101 0 23 22 61 33 57 6 -2 76 -12 154 -22z m3290 -70 c2 -1 6 -16 9
-33 l7 -32 -144 -70 c-88 -42 -134 -69 -119 -69 14 0 85 8 158 18 73 10 134
15 136 12 2 -3 7 -20 10 -38 7 -29 4 -33 -31 -52 l-38 -21 40 3 c38 2 39 1 46
-36 7 -44 14 -42 -151 -57 -205 -19 -205 -18 -25 -64 l160 -41 3 -36 3 -35
-148 -34 c-81 -18 -156 -35 -166 -38 -16 -4 -18 1 -15 29 3 28 8 34 36 41 24
7 32 13 28 24 -3 9 -6 24 -6 34 0 12 -10 21 -30 25 -19 4 -30 13 -30 23 0 9
-3 40 -6 69 l-7 51 39 22 39 21 -37 -5 c-21 -3 -40 -1 -43 4 -3 4 -8 37 -11
74 -6 63 -5 66 20 77 43 20 32 79 -15 79 -22 0 -32 6 -39 26 -6 14 -10 30 -10
35 0 8 327 2 337 -6z m-3221 -552 c-2 -71 -6 -136 -11 -146 -8 -20 -74 -57
-102 -58 -10 0 -13 -3 -6 -5 6 -3 37 2 69 10 32 8 62 12 66 8 4 -4 10 -23 13
-42 2 -19 8 -47 11 -62 4 -19 0 -39 -15 -63 l-20 -35 30 16 c17 8 32 14 34 12
8 -9 35 -68 35 -77 0 -6 -14 -27 -32 -47 l-32 -37 42 22 42 21 22 -45 c12 -24
20 -46 17 -48 -2 -2 -71 -36 -152 -75 l-148 -71 -19 32 c-25 41 -25 42 6 83
27 35 23 44 -10 19 -11 -8 -25 -15 -31 -15 -11 0 -45 61 -45 80 0 5 35 27 77
49 l78 39 -70 -5 c-66 -5 -73 -4 -103 22 -39 33 -44 87 -11 129 25 31 39 33
62 6 14 -16 15 -24 5 -39 -15 -24 -4 -51 22 -51 44 0 111 23 126 44 13 19 13
23 -8 40 -23 18 -23 18 -26 -7 -2 -19 -11 -27 -32 -32 -17 -4 -33 -7 -37 -8
-3 -1 -10 9 -13 23 -21 80 -21 78 8 88 24 9 20 11 -31 11 -73 1 -114 22 -133
67 -13 31 -13 39 2 70 24 49 51 62 77 35 19 -18 19 -23 7 -46 -12 -22 -12 -28
2 -42 13 -12 28 -14 72 -9 56 7 86 25 86 51 0 12 -21 25 -41 25 -6 0 -9 -7 -7
-17 2 -11 -7 -19 -31 -25 -18 -5 -36 -7 -39 -4 -11 12 -20 101 -10 107 6 4 47
11 92 15 79 9 78 9 -71 12 l-153 3 0 49 0 50 169 0 170 0 -3 -127z m3217 -100
l68 -6 -3 -36 c-3 -33 -7 -37 -48 -51 l-45 -15 43 -3 c38 -3 42 -6 42 -30 0
-56 -3 -57 -179 -42 l-161 13 0 38 c0 36 2 39 43 51 l42 13 -37 3 c-37 3 -38
4 -38 44 l0 41 103 -7 c56 -3 133 -9 170 -13z m-204 -308 c51 -19 97 -35 101
-35 5 0 13 14 19 30 5 17 14 30 19 30 17 0 72 -22 72 -29 0 -6 -49 -155 -65
-198 -3 -10 -13 -9 -42 1 -37 13 -40 19 -32 60 3 17 -12 26 -101 58 -57 22
-106 41 -108 43 -8 8 20 75 31 75 7 0 54 -16 106 -35z m-11 -179 c61 -54 112
-105 112 -115 0 -9 -6 -25 -12 -34 -12 -15 -26 -13 -173 24 -88 22 -162 42
-164 44 -2 3 4 15 12 29 14 20 22 24 49 20 30 -5 34 -3 44 24 10 27 9 33 -11
52 -20 19 -22 26 -13 51 9 26 12 28 27 16 9 -7 67 -57 129 -111z m-2808 -46
l20 -39 -22 -15 c-47 -28 -269 -156 -273 -156 -3 0 -14 18 -25 40 l-20 39 22
15 c28 17 272 156 275 156 2 0 12 -18 23 -40z m2695 -145 c66 -48 121 -90 122
-94 1 -3 -12 -33 -30 -66 -30 -55 -35 -60 -70 -63 -32 -3 -43 2 -73 32 -20 20
-44 36 -53 36 -9 0 -28 7 -41 16 -14 9 13 -19 58 -63 l84 -78 -26 -24 -26 -24
-47 39 c-27 22 -71 59 -99 82 -51 43 -84 54 -84 28 0 -8 43 -52 95 -98 52 -46
95 -88 95 -94 0 -6 -11 -21 -25 -34 l-24 -23 -98 88 c-54 49 -102 95 -107 103
-16 27 -1 114 24 134 24 20 104 25 115 8 3 -5 11 -10 16 -10 6 0 3 10 -5 22
-9 12 -16 29 -16 38 0 24 73 141 85 136 6 -2 65 -43 130 -91z m-2611 24 c15
-22 26 -42 24 -43 -2 -2 -51 -36 -110 -76 -60 -40 -108 -77 -108 -81 0 -4 5
-11 10 -14 17 -10 11 -23 -20 -45 l-29 -21 -55 83 -56 82 31 19 c28 18 31 19
49 2 18 -16 23 -14 122 58 57 42 106 76 109 76 4 1 19 -17 33 -40z m132 -211
l-18 -43 32 30 32 30 24 -30 c13 -16 23 -33 21 -36 -6 -17 -212 -229 -222
-229 -6 0 -22 11 -34 24 -21 23 -22 25 -7 61 22 52 20 55 -12 17 l-27 -33 -28
29 -28 29 117 122 117 122 25 -25 c25 -24 25 -24 8 -68z m2211 -176 l76 -93
-26 -27 c-24 -24 -28 -25 -54 -12 -47 24 -49 24 -25 -2 12 -13 22 -28 22 -33
0 -13 -42 -55 -54 -54 -6 0 -57 56 -113 123 l-102 124 29 27 29 27 38 -23 38
-23 -18 24 c-31 44 -31 51 -1 76 l29 24 28 -33 c15 -17 62 -74 104 -125z
m-2082 98 c14 -15 15 -25 7 -49 -9 -26 -8 -31 14 -46 23 -15 27 -15 52 4 l27
19 57 -31 c53 -29 58 -35 58 -67 l1 -35 19 23 c18 22 19 22 54 5 20 -9 36 -21
36 -25 0 -8 -146 -277 -154 -286 -2 -1 -20 7 -39 18 l-36 22 25 50 c27 52 22
53 -37 5 -36 -28 -38 -28 -68 -13 -17 9 -31 18 -31 20 0 2 31 28 69 57 l69 52
12 74 c6 41 9 77 6 80 -3 4 -57 -44 -120 -106 l-114 -113 -31 16 -30 16 30 83
c71 194 92 247 99 247 4 0 15 -9 25 -20z m1794 -104 c59 -31 120 -141 121
-217 0 -35 -6 -52 -25 -73 -29 -31 -81 -35 -115 -8 -19 15 -20 21 -9 45 10 22
18 26 43 24 26 -2 31 2 34 23 1 14 -11 49 -28 78 -24 41 -36 52 -55 52 -20 0
-25 -5 -25 -26 0 -20 4 -24 18 -20 12 4 23 -3 35 -23 9 -16 17 -32 17 -35 0
-11 -81 -57 -91 -51 -14 9 -91 165 -87 177 5 14 99 67 121 68 10 0 31 -6 46
-14z m-1369 -136 c0 -4 -11 -33 -25 -64 -31 -70 -32 -79 -2 -35 30 45 83 79
121 79 17 0 50 -9 73 -20 l42 -19 -51 -151 c-56 -168 -45 -159 -136 -119 -55
23 -88 88 -78 152 9 53 5 48 -33 -43 -18 -41 -34 -76 -35 -78 -2 -2 -23 6 -45
18 l-41 20 14 33 c34 79 98 221 111 247 l15 29 35 -20 c19 -12 35 -24 35 -29z
m1130 -42 c70 -182 82 -218 77 -231 -3 -8 -31 -24 -62 -37 -69 -28 -98 -21
-132 29 -16 24 -23 49 -23 82 0 43 4 51 35 74 l34 27 -19 51 c-11 29 -20 53
-20 54 0 3 62 31 72 32 3 1 21 -36 38 -81z m-166 -134 c26 -86 45 -158 42
-161 -2 -3 -34 -16 -70 -29 l-64 -23 -11 31 c-16 47 -14 54 22 64 23 7 33 17
35 33 3 20 0 23 -15 17 -50 -20 -70 -18 -76 6 -11 40 -8 46 28 58 36 12 39 17
29 43 -5 14 -11 14 -45 2 l-39 -14 -10 41 c-6 22 -9 42 -7 44 6 7 110 43 123
44 6 0 32 -70 58 -156z m-676 105 c12 -5 22 -11 22 -13 0 -3 -13 -62 -30 -133
-16 -70 -32 -138 -35 -151 -5 -22 -9 -23 -48 -17 -23 4 -45 10 -50 14 -4 4 11
78 34 164 46 172 38 161 107 136z m485 -26 c15 -99 29 -273 24 -287 -4 -10
-19 -16 -41 -16 -31 0 -38 5 -56 38 l-21 37 5 -43 c4 -39 2 -43 -22 -48 -15
-3 -35 -8 -44 -10 -12 -4 -19 2 -22 18 -12 57 -37 309 -31 318 3 5 23 10 44
10 33 0 40 -4 51 -30 19 -45 29 -45 23 -1 -5 37 -4 40 23 44 61 9 61 8 67 -30z
m-243 -143 l0 -160 -65 0 c-58 0 -68 3 -100 31 -79 70 -68 211 21 270 20 13
47 19 87 19 l57 0 0 -160z"/>
<path d="M1922 3568 c2 -13 8 -23 13 -23 6 0 11 10 13 23 2 15 -2 22 -13 22
-11 0 -15 -7 -13 -22z"/>
<path d="M1496 3508 c9 -30 12 -34 24 -22 14 14 2 44 -17 44 -10 0 -12 -6 -7
-22z"/>
<path d="M2791 3382 c-15 -27 -14 -32 4 -32 20 0 31 28 17 42 -7 7 -14 4 -21
-10z"/>
<path d="M1010 3229 c0 -25 18 -45 30 -33 7 7 5 16 -10 29 -15 14 -20 15 -20
4z"/>
<path d="M3126 3151 c-19 -21 -14 -41 9 -41 22 0 37 36 21 49 -10 8 -17 6 -30
-8z"/>
<path d="M3296 2981 c-12 -13 -14 -21 -6 -26 13 -8 40 12 40 31 0 20 -14 17
-34 -5z"/>
<path d="M3201 2899 c-20 -16 -21 -20 -6 -25 20 -8 38 8 33 29 -2 13 -6 13
-27 -4z"/>
<path d="M3378 2763 c-19 -5 -24 -18 -9 -27 4 -3 16 3 26 14 18 20 16 22 -17
13z"/>
<path d="M1810 3199 c-280 -35 -540 -166 -750 -378 -201 -204 -321 -436 -366
-706 -21 -133 -14 -401 14 -525 55 -235 157 -426 324 -605 183 -196 380 -314
637 -382 130 -35 408 -44 546 -18 323 60 607 237 808 503 85 114 133 197 177
307 98 246 117 571 49 840 -120 472 -557 878 -1029 955 -93 15 -322 20 -410 9z
m364 -134 l36 -15 -27 -55 c-15 -30 -30 -55 -33 -55 -3 0 -18 10 -33 23 l-29
23 23 47 c13 26 24 47 25 47 1 0 18 -7 38 -15z m200 -73 c57 -52 75 -171 34
-232 -13 -18 -36 -43 -51 -54 -28 -20 -37 -21 -322 -18 -161 2 -303 1 -316 -3
-22 -7 -22 -8 -4 -21 13 -9 48 -14 107 -14 93 0 140 -14 152 -46 15 -39 -22
-53 -212 -85 -149 -24 -219 -45 -368 -110 -135 -59 -174 -68 -208 -46 -31 21
-51 100 -43 174 8 78 78 195 102 171 4 -4 0 -41 -9 -83 -35 -170 -21 -180 168
-120 109 35 289 69 419 81 111 9 76 24 -58 24 -168 0 -209 22 -169 90 35 59
52 61 392 58 303 -3 308 -3 350 20 27 14 42 29 42 42 0 28 -17 34 -30 9 -22
-40 -124 -64 -171 -39 -23 13 -25 50 -3 93 24 47 83 117 108 127 27 11 66 3
90 -18z m433 -440 l23 -14 -27 -49 c-29 -54 -40 -58 -73 -31 l-22 18 26 52
c18 35 31 50 39 46 7 -4 22 -14 34 -22z m-418 -21 c22 -17 23 -19 7 -49 -19
-37 -18 -37 -56 -17 -35 18 -35 17 -15 55 18 35 31 37 64 11z m-145 -24 c30
-24 29 -28 -2 -76 -9 -12 -28 -5 -71 26 -5 4 32 73 39 73 3 0 18 -10 34 -23z
m373 -46 c46 -69 43 -109 -15 -170 -25 -26 -54 -44 -89 -54 -90 -27 -248 -40
-393 -33 -74 3 -196 9 -270 12 l-135 5 24 -20 c18 -17 37 -21 90 -21 134 0
231 -30 231 -70 0 -44 -98 -67 -350 -81 -159 -8 -223 -17 -345 -44 -82 -19
-186 -41 -230 -50 -122 -25 -222 -5 -246 49 -16 34 11 119 62 195 47 70 72 89
95 70 13 -10 10 -17 -19 -48 -45 -46 -70 -97 -63 -125 13 -53 116 -59 336 -20
115 21 194 28 383 33 161 5 241 11 249 19 7 7 10 12 7 13 -2 0 -71 6 -154 13
-159 14 -208 28 -220 67 -11 34 24 72 81 86 39 10 108 10 330 1 300 -13 465
-5 538 26 42 18 45 34 11 66 -14 13 -25 27 -25 30 0 4 14 26 31 49 35 50 54
50 86 2z m-908 -30 c22 -17 23 -19 7 -49 -19 -37 -18 -37 -56 -17 -35 18 -35
17 -15 55 18 35 31 37 64 11z m1230 -17 c37 -46 56 -122 56 -224 0 -124 -26
-183 -96 -218 -63 -31 -144 -43 -221 -32 -88 13 -269 12 -307 -1 -51 -18 -32
-34 41 -35 113 -1 197 -46 184 -98 -8 -33 -25 -41 -180 -88 -143 -43 -214 -77
-291 -138 -130 -105 -168 -130 -195 -130 -38 0 -66 37 -81 108 -25 122 36 432
86 432 11 0 14 -7 10 -22 -18 -84 -45 -259 -45 -294 0 -47 19 -74 53 -74 23 0
36 6 153 77 93 55 201 97 304 118 117 24 118 24 100 35 -8 6 -62 10 -120 10
-131 0 -180 12 -180 44 0 25 24 50 86 90 61 40 92 46 299 56 222 11 279 24
324 75 28 33 45 95 21 80 -5 -3 -10 -12 -10 -19 0 -7 -13 -24 -28 -39 -34 -33
-81 -36 -107 -7 -35 39 0 223 56 294 26 33 62 33 88 0z m-1370 -13 c24 -18 24
-18 5 -50 -10 -17 -21 -31 -24 -31 -4 0 -36 20 -58 36 -8 5 30 64 41 64 6 0
23 -9 36 -19z m-169 -507 c0 -9 -31 -64 -36 -64 -2 0 -16 7 -29 16 -29 19 -31
35 -9 69 l16 25 29 -21 c16 -11 29 -23 29 -25z m-110 -35 c0 -9 -8 -27 -19
-40 l-18 -22 -31 22 -31 22 20 34 20 33 29 -16 c17 -9 30 -24 30 -33z m-254
-81 c-4 -18 -9 -82 -12 -143 -5 -95 -3 -118 15 -169 56 -158 203 -254 355
-232 70 11 59 35 -29 63 -112 36 -152 100 -108 173 31 53 112 66 192 30 80
-37 187 -22 249 34 l36 33 -27 18 c-34 22 -34 39 -1 70 32 30 35 30 62 5 34
-32 29 -79 -15 -136 -45 -59 -69 -81 -110 -100 -38 -17 -155 -19 -237 -3 -32
6 -64 8 -72 5 -28 -11 4 -43 71 -75 35 -17 72 -42 81 -56 35 -53 -9 -129 -90
-155 -49 -16 -140 -9 -189 14 -91 44 -189 178 -222 301 -17 67 -19 209 -4 275
16 70 68 115 55 48z m1954 -23 c17 -9 30 -17 30 -19 0 -2 -25 -18 -55 -35 -30
-17 -82 -58 -115 -90 -54 -53 -61 -64 -58 -93 3 -29 7 -33 36 -36 44 -4 111
46 182 137 30 39 58 71 63 71 4 0 7 -21 7 -46 0 -42 -7 -54 -87 -157 -102
-129 -175 -206 -253 -264 -113 -83 -199 -109 -257 -80 -29 15 -32 15 -64 -9
-40 -29 -127 -57 -166 -52 -26 3 -28 0 -35 -51 -17 -111 -65 -181 -155 -226
-107 -52 -214 -32 -309 59 -47 47 -84 133 -84 198 0 66 62 118 108 90 9 -6 4
-14 -18 -30 -17 -13 -30 -32 -30 -44 0 -29 53 -109 100 -152 53 -48 96 -54
181 -27 104 33 154 105 131 186 -7 23 -4 42 15 85 29 66 32 69 44 48 5 -9 25
-26 44 -38 65 -40 137 -4 210 106 l38 56 16 -47 c23 -69 40 -76 104 -42 28 15
67 41 86 57 33 28 34 30 18 48 -33 36 -39 75 -21 128 23 69 95 174 160 233 60
55 85 61 134 36z m-1386 -29 l30 -23 -20 -31 -20 -31 -32 19 -32 20 17 35 c9
19 19 35 22 35 3 0 19 -11 35 -24z m-101 -82 c-19 -39 -28 -41 -63 -15 -24 19
-24 20 -7 55 l16 36 35 -21 35 -20 -16 -35z m932 -20 c30 -19 31 -34 7 -64
-18 -23 -19 -23 -49 -5 -31 18 -31 18 -15 52 18 38 23 39 57 17z m-101 -87
c-9 -18 -18 -33 -19 -35 -6 -7 -65 29 -65 39 0 6 7 23 16 39 l17 28 33 -20
c34 -20 34 -20 18 -51z m-350 -270 c19 -14 18 -18 -20 -75 -4 -7 -64 32 -64
41 0 5 8 22 17 37 17 30 24 30 67 -3z m-833 -133 c17 -8 29 -18 27 -22 -2 -4
-10 -19 -17 -34 -17 -33 -27 -34 -60 -9 -22 17 -23 19 -7 49 19 37 18 37 57
16z m109 -61 c14 -9 27 -18 28 -19 7 -5 -33 -64 -43 -64 -5 0 -21 9 -34 19
-22 17 -23 19 -7 49 19 37 23 38 56 15z m1279 -52 c22 -17 23 -19 7 -49 -9
-18 -20 -32 -24 -32 -6 0 -36 18 -60 36 -8 5 30 64 41 64 6 0 23 -9 36 -19z
m-118 -38 c34 -20 34 -24 13 -64 -14 -28 -17 -29 -37 -17 -12 8 -27 18 -34 22
-9 5 -8 15 4 41 9 19 19 35 21 35 2 0 17 -8 33 -17z"/>
<path d="M2276 2923 c-14 -15 -5 -43 14 -43 13 0 20 7 20 19 0 19 -23 35 -34
24z"/>
<path d="M2852 2293 c3 -41 23 -55 33 -24 7 22 -10 61 -26 61 -6 0 -9 -16 -7
-37z"/>
<path d="M614 2916 c-3 -8 -3 -20 1 -26 11 -18 108 -79 117 -74 22 14 4 45
-44 76 -68 43 -67 42 -74 24z"/>
<path d="M3480 2554 c-56 -30 -59 -49 -7 -48 41 1 77 27 77 56 0 24 -16 22
-70 -8z"/>
<path d="M406 2389 c9 -10 21 -16 25 -13 16 10 9 22 -16 27 -24 4 -25 3 -9
-14z"/>
<path d="M3550 2325 c0 -13 4 -14 23 -4 33 17 33 19 4 19 -18 0 -27 -5 -27
-15z"/>
<path d="M3600 1884 c0 -8 9 -14 20 -14 11 0 20 4 20 9 0 5 -9 11 -20 14 -13
3 -20 0 -20 -9z"/>
<path d="M3440 1206 c0 -7 11 -16 25 -19 25 -4 25 -4 9 14 -20 22 -34 24 -34
5z"/>
<path d="M3275 1030 c-9 -15 4 -30 26 -30 22 0 24 11 7 28 -15 15 -25 15 -33
2z"/>
<path d="M3380 951 c0 -20 25 -35 41 -25 12 7 3 21 -22 34 -16 9 -19 7 -19 -9z"/>
<path d="M1006 624 c-10 -25 -1 -27 19 -4 15 17 16 20 3 20 -9 0 -19 -7 -22
-16z"/>
<path d="M1521 436 c-19 -23 -29 -69 -20 -94 13 -35 26 -26 45 31 9 28 19 58
22 65 6 17 -33 16 -47 -2z"/>
<path d="M2544 355 c-7 -18 3 -35 23 -35 10 0 13 6 9 16 -3 9 -6 20 -6 25 0
15 -20 10 -26 -6z"/>
<path d="M1881 377 c-28 -35 -18 -113 17 -125 9 -3 12 15 12 67 0 70 -7 84
-29 58z"/>
</g>
</svg>
