<?xml version="1.0" encoding="utf-8"?>
<!-- Generator: Adobe Illustrator 25.0.1, SVG Export Plug-In . SVG Version: 6.00 Build 0)  -->
<svg version="1.1" id="Layer_1" xmlns="http://www.w3.org/2000/svg" xmlns:xlink="http://www.w3.org/1999/xlink" x="0px" y="0px"
	 viewBox="0 0 100 100" style="enable-background:new 0 0 100 100;" xml:space="preserve">
<style type="text/css">
	.st0{fill:#010101;}
</style>
<g transform="translate(0.000000,1024.000000) scale(0.100000,-0.100000)">
	<path class="st0" d="M478.19,10154.97c-84.21-6.29-166.72-37.43-235.02-88.72c-17.69-13.35-31.56-25.43-49.16-42.95
		c-37.94-38.02-65.41-76.38-88.46-123.76c-24.24-49.93-38.11-100.11-42.95-155.32c-1.7-19.65-1.28-63.88,0.85-81.66
		c1.36-11.82,5.95-40.15,7.14-44.66c0.43-1.62,2.72-4.25,6.29-7.23c7.57-6.38,40.57-30.45,90.16-65.83
		c37.68-26.79,41.51-29.77,41.93-32.24c0.26-1.53,4.68-38.53,9.78-82.25c5.19-43.72,9.53-80.64,9.78-82.08l0.43-2.55l116.11-0.08
		l116.11-0.17l5.36-5.02c3.06-2.81,8.42-6.55,12.33-8.59c24.75-12.93,55.63-9.19,76.13,9.19l4.93,4.42l115.85,0.17
		c101.73,0.08,115.85,0.26,116.02,1.36c0.17,0.68,4.68,38.79,10.04,84.63c5.44,45.85,10.12,83.61,10.46,83.87
		c0.34,0.34,20.67,14.89,45.25,32.41c45.76,32.58,72.56,52.14,84.72,61.5l6.8,5.36l1.45,6.72c15.48,73.41,10.72,151.75-13.86,224.81
		c-32.49,96.88-96.8,179.9-183.39,236.72c-63.88,41.93-137.2,66.77-212.99,72.04C525.91,10156.08,492.22,10155.99,478.19,10154.97z
		 M490.18,10071.96c0.68-0.68,3.91-76.13,10.46-238.67c5.19-130.82,9.61-237.99,9.87-238.25c0.26-0.17,4.59,106.83,9.7,237.91
		c5.1,131.08,9.61,238.76,10.04,239.18c1.36,1.53,36.41,1.02,47.89-0.77c24.67-3.74,47.63-11.57,63.03-21.35l4.42-2.81
		l-45.85-228.64c-25.26-125.72-45.76-228.64-45.59-228.81c0.09-0.17,28.32,98.33,62.69,218.86l62.52,219.03l5.1-0.42
		c13.61-1.36,36.83-13.7,59.97-32.07c10.8-8.51,26.96-24.67,30.11-29.94l2.21-3.83l-91.44-195.04
		c-50.35-107.26-91.69-195.46-92.03-195.97c-0.34-0.6-0.26-0.68,0.34-0.08c0.51,0.51,46.7,80.46,102.75,177.77
		c56.05,97.31,102.24,177.43,102.75,177.94c3.06,4.08,21.35-17.1,36.23-41.85c12.33-20.5,23.05-44.83,23.31-53.16l0.17-3.83
		l-113.89-139.5c-62.6-76.72-114.66-140.43-115.68-141.62c-3.32-4,18.88,18.37,99.43,100.37
		c117.38,119.42,135.75,137.88,136.69,137.29c1.36-0.85,6.21-11.99,9.1-20.84c5.61-17.27,7.83-32.07,7.83-52.65
		c0.09-16.33-0.68-24.41-4-41.85l-2.21-11.57l-67.88-49.08c-66.09-47.63-67.96-49.08-68.39-52.14c-0.26-1.7-3.91-30.54-8.17-63.96
		c-4.17-33.43-7.91-62.26-8.17-64.05l-0.51-3.15h-83.53h-83.61l-1.62-1.79c-3.23-3.57-17.95-14.04-24.67-17.52
		c-7.23-3.83-14.97-6.21-19.65-6.21c-8.34,0-23.82,7.83-38.62,19.56l-6.97,5.53l-83.44,0.42l-83.36,0.43l-3.15,24.67
		c-1.7,13.61-5.53,43.72-8.51,66.94l-5.36,42.27l-67.79,48.99l-67.88,48.99l-1.28,5.7c-8.17,35.98-7.14,71.02,2.98,101.82
		c2.04,6.21,8.51,19.99,9.36,19.99c0.34,0,53.5-53.76,118.15-119.51c64.73-65.75,117.72-119.51,117.89-119.51
		s-12.76,15.99-28.66,35.47c-15.99,19.56-67.79,82.93-115.08,140.86L162.2,9826.9v3.91c0.09,13.69,22.46,56.65,41.93,80.55
		c6.55,8.17,11.23,12.59,15.23,14.71c1.7,0.94,6.04-6.29,103.6-175.73c56.05-97.14,102.24-177.01,102.75-177.52
		c0.6-0.6,0.68-0.6,0.43,0c-0.26,0.51-41.34,88.04-91.27,194.7l-90.84,193.76l1.62,3.06c4.59,8.59,30.03,31.56,48.4,43.72
		c17.44,11.57,36.32,19.82,43.98,19.22l3.49-0.26l62.52-219.2c34.45-120.61,62.69-219.11,62.77-219.03
		c0.17,0.17-20.41,103.18-45.59,228.98l-45.93,228.81l1.87,1.53c12.76,10.55,44.83,21.01,74.51,24.41
		C460.84,10073.57,488.99,10073.15,490.18,10071.96z"/>
</g>
</svg>
